<svg xmlns="http://www.w3.org/2000/svg" xmlns:xlink="http://www.w3.org/1999/xlink" width="794" zoomAndPan="magnify" viewBox="0 0 594.95996 842.24997" height="1123" preserveAspectRatio="xMidYMid meet" version="1.2"><defs><clipPath id="dce649be2d"><path d="M 168 255.910156 L 198 255.910156 L 198 322 L 168 322 Z M 168 255.910156 "/></clipPath><clipPath id="0c1f49e0cf"><path d="M 354 255.910156 L 385 255.910156 L 385 322 L 354 322 Z M 354 255.910156 "/></clipPath></defs><g id="ecfe6092e3"><path style=" stroke:none;fill-rule:nonzero;fill:#103345;fill-opacity:1;" d="M 423.570312 292.136719 L 399.183594 292.136719 C 397.289062 292.136719 395.769531 293.664062 395.769531 295.546875 L 395.769531 306.828125 C 395.769531 321.515625 383.144531 333.328125 368.140625 331.941406 C 355.074219 330.738281 345.300781 319.242188 345.300781 306.097656 L 345.300781 295.546875 C 345.300781 293.664062 343.777344 292.136719 341.910156 292.136719 L 211.582031 292.136719 C 209.695312 292.136719 208.167969 293.664062 208.167969 295.546875 L 208.167969 306.078125 C 208.167969 319.203125 198.453125 330.699219 185.390625 331.9375 C 170.390625 333.359375 157.710938 321.539062 157.710938 306.828125 L 157.710938 295.546875 C 157.710938 293.664062 156.183594 292.136719 154.300781 292.136719 L 131.96875 292.136719 C 101.078125 292.136719 76.035156 317.179688 76.035156 348.074219 L 76.035156 603.800781 C 76.035156 621.65625 90.496094 636.121094 108.339844 636.121094 L 321.96875 636.121094 C 325.136719 636.121094 326.808594 632.4375 324.792969 629.980469 C 320.445312 624.699219 316.542969 619.152344 313.128906 613.332031 C 312.464844 612.175781 311.261719 611.464844 309.9375 611.464844 L 117.007812 611.464844 C 109.277344 611.464844 103.007812 605.203125 103.007812 597.464844 L 103.007812 390.835938 C 103.007812 383.101562 109.277344 376.832031 117.007812 376.832031 L 438.53125 376.832031 C 446.242188 376.832031 452.527344 383.09375 452.527344 390.835938 L 452.527344 428.195312 C 452.527344 429.859375 453.632812 431.296875 455.230469 431.761719 C 461.761719 433.652344 468.097656 436.058594 474.214844 439.003906 C 476.667969 440.183594 479.519531 438.417969 479.519531 435.664062 L 479.519531 348.066406 C 479.519531 317.171875 454.46875 292.128906 423.574219 292.128906 "/><path style=" stroke:none;fill-rule:nonzero;fill:#103345;fill-opacity:1;" d="M 207.625 455.839844 L 147.628906 455.839844 C 145.96875 455.839844 144.625 454.492188 144.625 452.832031 L 144.625 421.019531 C 144.625 419.359375 145.96875 418.019531 147.628906 418.019531 L 207.625 418.019531 C 209.285156 418.019531 210.628906 419.359375 210.628906 421.019531 L 210.628906 452.832031 C 210.628906 454.492188 209.285156 455.839844 207.625 455.839844 "/><path style=" stroke:none;fill-rule:nonzero;fill:#103345;fill-opacity:1;" d="M 307.285156 455.839844 L 247.292969 455.839844 C 245.636719 455.839844 244.289062 454.492188 244.289062 452.832031 L 244.289062 421.019531 C 244.289062 419.359375 245.636719 418.019531 247.292969 418.019531 L 307.285156 418.019531 C 308.953125 418.019531 310.304688 419.359375 310.304688 421.019531 L 310.304688 452.832031 C 310.304688 454.492188 308.953125 455.839844 307.285156 455.839844 "/><path style=" stroke:none;fill-rule:nonzero;fill:#103345;fill-opacity:1;" d="M 410.921875 421.027344 L 410.921875 427.191406 C 386.851562 428.984375 364.085938 437.707031 344.90625 452.445312 L 344.90625 421.027344 C 344.90625 419.355469 346.257812 418.003906 347.929688 418.003906 L 407.898438 418.003906 C 409.570312 418.003906 410.921875 419.355469 410.921875 421.027344 "/><path style=" stroke:none;fill-rule:nonzero;fill:#103345;fill-opacity:1;" d="M 207.625 516.179688 L 147.628906 516.179688 C 145.96875 516.179688 144.625 514.855469 144.625 513.183594 L 144.625 481.382812 C 144.625 479.710938 145.96875 478.359375 147.628906 478.359375 L 207.625 478.359375 C 209.285156 478.359375 210.628906 479.710938 210.628906 481.382812 L 210.628906 513.183594 C 210.628906 514.855469 209.285156 516.179688 207.625 516.179688 "/><path style=" stroke:none;fill-rule:nonzero;fill:#103345;fill-opacity:1;" d="M 310.28125 481.382812 L 310.28125 493.660156 C 306.523438 500.832031 303.5 508.371094 301.242188 516.179688 L 247.300781 516.179688 C 245.628906 516.179688 244.300781 514.832031 244.300781 513.183594 L 244.300781 481.382812 C 244.300781 479.710938 245.628906 478.359375 247.300781 478.359375 L 307.285156 478.359375 C 308.953125 478.359375 310.28125 479.710938 310.28125 481.382812 "/><path style=" stroke:none;fill-rule:nonzero;fill:#103345;fill-opacity:1;" d="M 207.625 575.171875 L 147.628906 575.171875 C 145.96875 575.171875 144.625 573.820312 144.625 572.175781 L 144.625 540.347656 C 144.625 538.703125 145.96875 537.351562 147.628906 537.351562 L 207.625 537.351562 C 209.285156 537.351562 210.628906 538.703125 210.628906 540.347656 L 210.628906 572.175781 C 210.628906 573.820312 209.285156 575.171875 207.625 575.171875 "/><path style=" stroke:none;fill-rule:nonzero;fill:#103345;fill-opacity:1;" d="M 298.710938 575.171875 L 247.300781 575.171875 C 245.628906 575.171875 244.300781 573.820312 244.300781 572.175781 L 244.300781 540.371094 C 244.300781 538.703125 245.628906 537.351562 247.300781 537.351562 L 297.117188 537.351562 C 296.722656 540.691406 296.503906 544.078125 296.402344 547.46875 C 296.160156 556.875 296.945312 566.15625 298.710938 575.171875 "/><g clip-rule="nonzero" clip-path="url(#dce649be2d)"><path style=" stroke:none;fill-rule:nonzero;fill:#103345;fill-opacity:1;" d="M 182.9375 255.898438 C 174.804688 255.898438 168.210938 262.492188 168.210938 270.625 L 168.210938 307.085938 C 168.210938 315.21875 174.804688 321.8125 182.9375 321.8125 C 191.070312 321.8125 197.664062 315.21875 197.664062 307.085938 L 197.664062 270.625 C 197.664062 262.492188 191.070312 255.898438 182.9375 255.898438 "/></g><g clip-rule="nonzero" clip-path="url(#0c1f49e0cf)"><path style=" stroke:none;fill-rule:nonzero;fill:#103345;fill-opacity:1;" d="M 369.441406 255.898438 C 361.3125 255.898438 354.707031 262.492188 354.707031 270.625 L 354.707031 307.085938 C 354.707031 315.21875 361.3125 321.8125 369.441406 321.8125 C 377.570312 321.8125 384.152344 315.21875 384.152344 307.085938 L 384.152344 270.625 C 384.152344 262.492188 377.570312 255.898438 369.441406 255.898438 "/></g><path style=" stroke:none;fill-rule:nonzero;fill:#103345;fill-opacity:1;" d="M 478.703125 612.523438 C 474.355469 616.625 469.664062 620.210938 464.753906 623.234375 C 453.726562 629.984375 441.519531 633.964844 429.09375 635.21875 L 429.09375 622.101562 C 429.09375 617.3125 425.214844 613.457031 420.449219 613.457031 C 415.683594 613.457031 411.804688 617.3125 411.804688 622.101562 L 411.804688 635.21875 C 392.28125 633.226562 373.371094 624.507812 358.855469 609.183594 C 345.816406 595.40625 337.980469 578.070312 336.113281 559.503906 C 336.433594 559.550781 336.730469 559.550781 337.046875 559.550781 L 349.304688 559.550781 C 354.066406 559.550781 357.949219 555.695312 357.949219 550.90625 C 357.949219 546.144531 354.066406 542.261719 349.304688 542.261719 L 337.046875 542.261719 C 336.730469 542.261719 336.433594 542.289062 336.140625 542.335938 C 337.613281 527.601562 342.84375 513.726562 351.316406 501.839844 C 354.507812 497.371094 358.144531 493.195312 362.222656 489.339844 C 375.972656 476.324219 393.289062 468.4375 411.804688 466.574219 L 411.804688 479.761719 C 411.804688 484.550781 415.683594 488.40625 420.449219 488.40625 C 425.214844 488.40625 429.09375 484.550781 429.09375 479.761719 L 429.09375 466.574219 C 449.332031 468.660156 467.945312 477.746094 482.066406 492.679688 C 495.402344 506.777344 502.917969 524.308594 504.734375 542.261719 L 491.597656 542.261719 C 486.832031 542.261719 482.976562 546.144531 482.976562 550.90625 C 482.976562 555.695312 486.832031 559.550781 491.597656 559.550781 L 504.734375 559.550781 C 502.746094 579.074219 494.050781 598.011719 478.703125 612.523438 Z M 509.375 495.722656 C 505.71875 489.855469 501.445312 484.230469 496.484375 479.023438 C 491.839844 474.113281 486.808594 469.691406 481.429688 465.835938 C 481.332031 465.761719 481.257812 465.6875 481.160156 465.613281 C 464.386719 453.640625 444.46875 446.910156 423.347656 446.292969 C 395.425781 445.507812 368.875 455.652344 348.542969 474.875 C 345.472656 477.796875 342.597656 480.839844 339.945312 484.058594 C 324.941406 501.988281 316.492188 524.285156 315.804688 547.984375 C 315.042969 575.957031 325.1875 602.53125 344.414062 622.863281 C 364.996094 644.574219 392.699219 655.527344 420.472656 655.527344 C 433.316406 655.527344 446.1875 653.195312 458.34375 648.503906 C 470.648438 643.738281 482.214844 636.566406 492.355469 626.964844 C 529.097656 592.265625 535.089844 537.054688 509.375 495.722656 "/><path style=" stroke:none;fill-rule:nonzero;fill:#103345;fill-opacity:1;" d="M 471.554688 567.289062 L 428.332031 546.042969 L 428.332031 510.949219 C 428.332031 506.628906 424.773438 503.089844 420.449219 503.089844 C 416.101562 503.089844 412.589844 506.628906 412.589844 510.949219 L 412.589844 555.792969 L 464.628906 581.410156 C 465.734375 581.949219 466.9375 582.21875 468.09375 582.21875 C 470.964844 582.21875 473.765625 580.625 475.140625 577.824219 C 477.058594 573.941406 475.4375 569.226562 471.554688 567.289062 "/></g></svg>