<svg xmlns="http://www.w3.org/2000/svg" xmlns:xlink="http://www.w3.org/1999/xlink" width="1366" zoomAndPan="magnify" viewBox="0 0 1024.5 576" height="768" preserveAspectRatio="xMidYMid meet" version="1.0"><defs><clipPath id="b04113fb3b"><path d="M 317 34.722656 L 707 34.722656 L 707 518.554688 L 317 518.554688 Z M 317 34.722656 " clip-rule="nonzero"/></clipPath><clipPath id="40cbc3a240"><path d="M 430.164062 132.046875 L 592.59375 132.046875 L 592.59375 420.914062 L 430.164062 420.914062 Z M 430.164062 132.046875 " clip-rule="nonzero"/></clipPath></defs><g clip-path="url(#b04113fb3b)"><path fill="#f2b531" d="M 703.511719 104.464844 C 703.511719 104.464844 559.089844 93.148438 511.980469 34.722656 C 464.875 93.148438 320.453125 104.464844 320.453125 104.464844 C 320.453125 104.464844 311.457031 253.433594 323.355469 300.636719 C 366.011719 471.082031 511.980469 518.285156 511.980469 518.285156 C 511.980469 518.285156 658.046875 470.984375 700.609375 300.636719 C 712.507812 253.433594 703.511719 104.464844 703.511719 104.464844 Z M 703.511719 104.464844 " fill-opacity="1" fill-rule="nonzero"/></g><path fill="#103345" d="M 681.84375 295.996094 C 646.824219 436.160156 539.066406 486.945312 512.078125 497.679688 C 484.992188 486.945312 377.332031 436.160156 342.3125 295.996094 C 334.285156 263.785156 336.703125 171.019531 339.121094 122.070312 C 376.171875 117.429688 464.003906 102.628906 512.078125 62.195312 C 560.152344 102.628906 648.082031 117.429688 685.035156 122.070312 C 687.355469 171.019531 689.871094 263.785156 681.84375 295.996094 Z M 681.84375 295.996094 " fill-opacity="1" fill-rule="nonzero"/><path fill="#103345" d="M 681.84375 295.996094 C 646.824219 436.160156 539.066406 486.945312 512.078125 497.679688 L 512.078125 62.195312 C 560.152344 102.628906 648.082031 117.429688 685.035156 122.070312 C 687.355469 171.019531 689.871094 263.785156 681.84375 295.996094 Z M 681.84375 295.996094 " fill-opacity="1" fill-rule="nonzero"/><g clip-path="url(#40cbc3a240)"><path fill="#fba100" d="M 434.972656 420.914062 C 434.113281 420.914062 433.246094 420.683594 432.464844 420.207031 C 430.4375 418.964844 429.621094 416.421875 430.539062 414.230469 L 484.484375 286.109375 L 434.976562 286.109375 C 433.308594 286.109375 431.761719 285.242188 430.882812 283.824219 C 430.007812 282.402344 429.925781 280.632812 430.667969 279.144531 L 502.886719 134.710938 C 503.707031 133.078125 505.371094 132.046875 507.195312 132.046875 L 584.226562 132.046875 C 585.976562 132.046875 587.597656 133 588.445312 134.542969 C 589.289062 136.078125 589.234375 137.953125 588.292969 139.4375 L 531.988281 228.335938 L 589.042969 228.335938 C 590.914062 228.335938 592.613281 229.425781 593.402344 231.117188 C 594.191406 232.816406 593.933594 234.820312 592.722656 236.257812 L 438.664062 419.207031 C 437.71875 420.320312 436.355469 420.914062 434.972656 420.914062 " fill-opacity="1" fill-rule="nonzero"/></g></svg>