<svg xmlns="http://www.w3.org/2000/svg" xmlns:xlink="http://www.w3.org/1999/xlink" width="794" zoomAndPan="magnify" viewBox="0 0 594.95996 842.24997" height="1123" preserveAspectRatio="xMidYMid meet" version="1.2"><defs><clipPath id="a812924ef9"><path d="M 93.703125 594 L 401 594 L 401 661 L 93.703125 661 Z M 93.703125 594 "/></clipPath><clipPath id="deaec05a0c"><path d="M 103 215.941406 L 274 215.941406 L 274 387 L 103 387 Z M 103 215.941406 "/></clipPath><clipPath id="5e459f09ad"><path d="M 169 215.941406 L 501.339844 215.941406 L 501.339844 661 L 169 661 Z M 169 215.941406 "/></clipPath></defs><g id="63c3147512"><g clip-rule="nonzero" clip-path="url(#a812924ef9)"><path style=" stroke:none;fill-rule:nonzero;fill:#103345;fill-opacity:1;" d="M 377.933594 608.863281 C 377.933594 602.324219 377.933594 599.011719 377.933594 594.660156 L 93.894531 594.660156 C 93.894531 631.207031 123.625 660.9375 160.171875 660.9375 L 400.714844 660.9375 C 386.714844 647.957031 377.933594 629.414062 377.933594 608.863281 Z M 377.933594 608.863281 "/></g><g clip-rule="nonzero" clip-path="url(#deaec05a0c)"><path style=" stroke:none;fill-rule:nonzero;fill:#103345;fill-opacity:1;" d="M 188.574219 386.363281 C 235.5625 386.363281 273.789062 348.136719 273.789062 301.152344 C 273.789062 254.164062 235.5625 215.941406 188.574219 215.941406 C 141.589844 215.941406 103.363281 254.167969 103.363281 301.152344 C 103.363281 348.140625 141.589844 386.363281 188.574219 386.363281 Z M 188.574219 310.621094 C 172.914062 310.621094 160.171875 297.878906 160.171875 282.21875 C 160.171875 269.875 168.089844 259.351562 179.105469 255.441406 L 179.105469 244.34375 C 179.105469 239.113281 183.347656 234.875 188.574219 234.875 C 193.804688 234.875 198.042969 239.113281 198.042969 244.34375 L 198.042969 253.8125 L 207.511719 253.8125 C 212.738281 253.8125 216.980469 258.050781 216.980469 263.28125 C 216.980469 268.507812 212.738281 272.746094 207.511719 272.746094 L 188.574219 272.746094 C 183.355469 272.746094 179.105469 276.996094 179.105469 282.214844 C 179.105469 287.4375 183.355469 291.683594 188.574219 291.683594 C 204.238281 291.683594 216.980469 304.425781 216.980469 320.085938 C 216.980469 332.429688 209.0625 342.953125 198.042969 346.863281 L 198.042969 357.960938 C 198.042969 363.1875 193.804688 367.429688 188.574219 367.429688 C 183.347656 367.429688 179.105469 363.1875 179.105469 357.960938 L 179.105469 348.492188 L 169.640625 348.492188 C 164.410156 348.492188 160.171875 344.253906 160.171875 339.023438 C 160.171875 333.796875 164.410156 329.554688 169.640625 329.554688 L 188.574219 329.554688 C 193.796875 329.554688 198.042969 325.308594 198.042969 320.089844 C 198.042969 314.867188 193.796875 310.621094 188.574219 310.621094 Z M 188.574219 310.621094 "/></g><path style=" stroke:none;fill-rule:nonzero;fill:#103345;fill-opacity:1;" d="M 340.0625 263.28125 L 453.679688 263.28125 L 453.679688 291.683594 L 340.0625 291.683594 Z M 340.0625 263.28125 "/><g clip-rule="nonzero" clip-path="url(#5e459f09ad)"><path style=" stroke:none;fill-rule:nonzero;fill:#103345;fill-opacity:1;" d="M 248.386719 215.941406 C 275.179688 234.804688 292.722656 265.964844 292.722656 301.152344 C 292.722656 366.019531 233.730469 415.390625 169.636719 403.570312 L 169.636719 575.722656 L 387.402344 575.722656 C 392.628906 575.722656 396.871094 579.960938 396.871094 585.191406 L 396.871094 607.894531 C 396.871094 635.613281 417.933594 658.425781 444.519531 660.734375 C 475.171875 663.328125 501.019531 638.757812 501.019531 608.863281 L 501.019531 215.941406 Z M 463.148438 547.320312 L 207.511719 547.320312 C 202.28125 547.320312 198.042969 543.082031 198.042969 537.851562 C 198.042969 532.621094 202.28125 528.382812 207.511719 528.382812 L 463.148438 528.382812 C 468.375 528.382812 472.613281 532.621094 472.613281 537.851562 C 472.613281 543.082031 468.375 547.320312 463.148438 547.320312 Z M 463.148438 499.980469 L 207.511719 499.980469 C 202.28125 499.980469 198.042969 495.742188 198.042969 490.511719 C 198.042969 485.28125 202.28125 481.042969 207.511719 481.042969 L 463.148438 481.042969 C 468.375 481.042969 472.613281 485.28125 472.613281 490.511719 C 472.613281 495.742188 468.375 499.980469 463.148438 499.980469 Z M 463.148438 452.640625 L 207.511719 452.640625 C 202.28125 452.640625 198.042969 448.402344 198.042969 443.171875 C 198.042969 437.945312 202.28125 433.703125 207.511719 433.703125 L 463.148438 433.703125 C 468.375 433.703125 472.613281 437.945312 472.613281 443.171875 C 472.613281 448.402344 468.375 452.640625 463.148438 452.640625 Z M 463.148438 405.300781 L 292.722656 405.300781 C 287.496094 405.300781 283.253906 401.0625 283.253906 395.832031 C 283.253906 390.601562 287.496094 386.363281 292.722656 386.363281 L 463.144531 386.363281 C 468.375 386.363281 472.613281 390.601562 472.613281 395.832031 C 472.613281 401.0625 468.375 405.300781 463.148438 405.300781 Z M 463.148438 357.960938 L 330.59375 357.960938 C 325.367188 357.960938 321.128906 353.722656 321.128906 348.492188 C 321.128906 343.261719 325.367188 339.023438 330.59375 339.023438 L 463.148438 339.023438 C 468.375 339.023438 472.613281 343.261719 472.613281 348.492188 C 472.613281 353.722656 468.375 357.960938 463.148438 357.960938 Z M 472.613281 301.152344 C 472.613281 306.382812 468.375 310.621094 463.148438 310.621094 L 330.59375 310.621094 C 325.367188 310.621094 321.128906 306.382812 321.128906 301.152344 L 321.128906 253.8125 C 321.128906 248.582031 325.367188 244.34375 330.59375 244.34375 L 463.148438 244.34375 C 468.375 244.34375 472.613281 248.582031 472.613281 253.8125 Z M 472.613281 301.152344 "/></g></g></svg>