<svg xmlns="http://www.w3.org/2000/svg" xmlns:xlink="http://www.w3.org/1999/xlink" width="794" zoomAndPan="magnify" viewBox="0 0 594.95996 842.24997" height="1123" preserveAspectRatio="xMidYMid meet" version="1.2"><defs><clipPath id="5115567d6a"><path d="M 100.417969 196 L 289 196 L 289 358 L 100.417969 358 Z M 100.417969 196 "/></clipPath></defs><g id="40f83c75c5"><path style=" stroke:none;fill-rule:nonzero;fill:#103345;fill-opacity:1;" d="M 481.945312 505.238281 C 481.640625 504.902344 481.320312 504.574219 480.996094 504.246094 C 479.601562 502.855469 478.113281 501.597656 476.570312 500.476562 L 357.222656 394.6875 C 356.523438 394.070312 355.746094 393.589844 354.929688 393.253906 L 351.816406 396.363281 L 323.546875 424.632812 L 320.464844 427.71875 C 320.804688 428.535156 321.289062 429.316406 321.910156 430.011719 L 429.300781 550.144531 C 430.144531 551.203125 431.085938 552.199219 432.066406 553.183594 L 432.078125 553.191406 C 445.046875 566.164062 465.253906 567.234375 478.890625 556.257812 C 479.832031 555.496094 480.699219 554.65625 481.574219 553.785156 C 482.445312 552.914062 483.085938 551.855469 483.9375 551.007812 L 483.945312 550.996094 C 484.695312 550.246094 485.304688 549.378906 485.886719 548.5 C 494.578125 535.347656 493.265625 517.425781 481.945312 505.238281 Z M 481.945312 505.238281 "/><g clip-rule="nonzero" clip-path="url(#5115567d6a)"><path style=" stroke:none;fill-rule:nonzero;fill:#103345;fill-opacity:1;" d="M 168.792969 329.710938 C 170.292969 328.214844 172.109375 326.859375 173.421875 325.203125 C 175.269531 322.863281 175.167969 319.746094 175.828125 316.980469 C 176.628906 313.625 177.707031 310.171875 179.835938 307.402344 C 181.121094 305.734375 183.484375 302.957031 185.285156 301.871094 C 186.328125 301.246094 187.398438 300.652344 188.515625 300.167969 C 190.605469 299.265625 192.914062 298.792969 195.1875 298.894531 C 197.941406 299.019531 200.511719 300.378906 202.4375 302.320312 C 202.925781 302.808594 203.410156 303.296875 203.894531 303.789062 C 204.425781 304.320312 204.957031 304.859375 205.488281 305.398438 C 206.089844 306.003906 206.691406 306.605469 207.285156 307.214844 C 207.96875 307.902344 208.652344 308.589844 209.335938 309.277344 C 210.109375 310.0625 210.882812 310.847656 211.660156 311.625 C 212.53125 312.503906 213.402344 313.382812 214.269531 314.265625 C 215.234375 315.234375 216.199219 316.210938 217.164062 317.1875 C 218.21875 318.253906 219.273438 319.316406 220.328125 320.382812 C 221.460938 321.53125 222.597656 322.675781 223.734375 323.820312 C 224.9375 325.039062 226.148438 326.261719 227.351562 327.476562 C 228.621094 328.761719 229.886719 330.039062 231.152344 331.320312 C 232.476562 332.652344 233.792969 333.984375 235.109375 335.3125 C 236.46875 336.691406 237.832031 338.0625 239.191406 339.4375 C 240.582031 340.839844 241.972656 342.246094 243.367188 343.65625 C 244.789062 345.089844 246.207031 346.519531 247.621094 347.953125 C 249.0625 349.402344 250.5 350.855469 251.9375 352.308594 C 253.382812 353.773438 254.835938 355.234375 256.285156 356.699219 C 256.609375 357.027344 256.9375 357.359375 257.269531 357.691406 L 284.875 330.082031 L 230.570312 276.316406 C 227.910156 273.679688 226.457031 268.714844 225.570312 265.199219 C 223.921875 258.65625 225.3125 251.6875 227.984375 245.613281 C 231.96875 236.542969 239.242188 228.640625 246.519531 222.070312 C 258.175781 211.542969 271.800781 206.074219 283.722656 205.9375 L 288.828125 200.839844 C 273.078125 191.828125 250.480469 196.984375 226.21875 208.6875 C 225.851562 208.84375 225.5625 209.097656 225.195312 209.28125 C 219.101562 212.269531 212.976562 215.734375 206.921875 219.621094 C 195.140625 227.199219 184.726562 235.765625 176.089844 244.660156 C 173.199219 247.644531 170.492188 250.449219 168.917969 254.355469 C 166.832031 259.519531 165.589844 264.589844 162.476562 269.320312 C 159.230469 274.261719 154.429688 277.976562 149.480469 281.101562 C 144.863281 284.027344 139.3125 286.820312 133.835938 287.65625 C 130.582031 288.152344 128 288.367188 125.550781 289.242188 C 123.703125 289.898438 121.941406 290.929688 120.019531 292.746094 C 113.316406 299.078125 106.90625 305.832031 100.417969 312.316406 L 143.304688 355.203125 Z M 168.792969 329.710938 "/></g><path style=" stroke:none;fill-rule:nonzero;fill:#103345;fill-opacity:1;" d="M 390.390625 327.136719 C 413.9375 336.550781 441.859375 331.652344 460.828125 312.496094 C 477.65625 295.507812 483.199219 271.582031 477.507812 250.019531 L 443.609375 287.65625 C 441.308594 290.210938 436.796875 291.941406 433.589844 291.507812 L 401.273438 287.113281 C 398.0625 286.675781 395.054688 283.695312 394.585938 280.492188 L 389.882812 248.21875 C 389.414062 245.011719 391.105469 240.488281 393.636719 238.160156 L 431.132812 203.730469 C 409.390625 198.039062 385.289062 203.769531 368.335938 220.886719 C 349.40625 239.996094 344.753906 267.878906 354.304688 291.304688 L 207.082031 438.527344 C 183.472656 429.070312 155.472656 434.011719 136.496094 453.253906 C 119.703125 470.28125 114.214844 494.21875 119.953125 515.769531 C 119.953125 515.769531 153.75 478.082031 153.769531 478.058594 C 158.792969 472.476562 172.300781 471.085938 178.796875 473.492188 C 186.28125 476.261719 192.304688 480.121094 196.902344 484.625 C 201.40625 489.222656 205.265625 495.25 208.039062 502.734375 C 210.445312 509.226562 209.054688 522.734375 203.472656 527.761719 C 203.449219 527.78125 165.761719 561.574219 165.761719 561.574219 C 187.3125 567.3125 211.25 561.824219 228.277344 545.035156 C 247.503906 526.074219 252.449219 498.101562 243.023438 474.503906 Z M 390.390625 327.136719 "/></g></svg>