<svg xmlns="http://www.w3.org/2000/svg" xmlns:xlink="http://www.w3.org/1999/xlink" width="794" zoomAndPan="magnify" viewBox="0 0 594.95996 842.24997" height="1123" preserveAspectRatio="xMidYMid meet" version="1.2"><defs><clipPath id="39bc878e7f"><path d="M 166.816406 110.347656 L 486.625 110.347656 L 486.625 674.726562 L 166.816406 674.726562 Z M 166.816406 110.347656 "/></clipPath></defs><g id="f294a0eb87"><g clip-rule="nonzero" clip-path="url(#39bc878e7f)"><path style=" stroke:none;fill-rule:nonzero;fill:#103345;fill-opacity:1;" d="M 176.214844 674.726562 C 174.53125 674.726562 172.839844 674.273438 171.316406 673.34375 C 167.355469 670.914062 165.757812 665.949219 167.550781 661.667969 L 272.949219 411.347656 L 176.222656 411.347656 C 172.960938 411.347656 169.941406 409.65625 168.21875 406.878906 C 166.511719 404.105469 166.351562 400.644531 167.804688 397.738281 L 308.902344 115.546875 C 310.503906 112.355469 313.757812 110.347656 317.320312 110.347656 L 467.820312 110.347656 C 471.246094 110.347656 474.40625 112.207031 476.0625 115.21875 C 477.714844 118.21875 477.605469 121.886719 475.769531 124.785156 L 365.765625 298.472656 L 477.230469 298.472656 C 480.886719 298.472656 484.207031 300.597656 485.75 303.90625 C 487.292969 307.226562 486.785156 311.140625 484.425781 313.945312 L 183.421875 671.386719 C 181.578125 673.566406 178.914062 674.726562 176.214844 674.726562 "/></g></g></svg>