<svg xmlns="http://www.w3.org/2000/svg" xmlns:xlink="http://www.w3.org/1999/xlink" width="1080" zoomAndPan="magnify" viewBox="0 0 810 1012.49997" height="1350" preserveAspectRatio="xMidYMid meet" version="1.2"><defs><clipPath id="d1534a6e8e"><path d="M 0.199219 0 L 809.800781 0 L 809.800781 1012 L 0.199219 1012 Z M 0.199219 0 "/></clipPath><clipPath id="faacd2de82"><path d="M -2736.980469 -1.183594 L 3810.589844 0.441406 L 3810.589844 -1.183594 Z M -2738.609375 -1.183594 L -2738.609375 1012.769531 L -2736.980469 -1.183594 Z M 3810.589844 0.441406 L 3808.960938 1012.769531 L -2738.609375 1012.769531 L -2738.609375 1014.398438 L 3810.589844 1014.398438 Z M 3810.589844 0.441406 "/></clipPath><clipPath id="92a2e7d9ec"><path d="M 196 0 L 732 0 L 732 1012 L 196 1012 Z M 196 0 "/></clipPath><clipPath id="b2ba0027ee"><path d="M 207.71875 546.804688 L 357.613281 548.402344 L 196.292969 1014.398438 L 731.359375 327.738281 L 572.804688 327.738281 L 696.824219 0.0859375 L 400.449219 -1.152344 Z M 207.71875 546.804688 "/></clipPath></defs><g id="a6beb5db69"><g clip-rule="nonzero" clip-path="url(#d1534a6e8e)"><g clip-rule="nonzero" clip-path="url(#faacd2de82)"><rect x="0" width="810" y="0" height="1012.49997" style="fill:#1d1d1b;fill-opacity:1;stroke:none;"/></g></g><g clip-rule="nonzero" clip-path="url(#92a2e7d9ec)"><g clip-rule="nonzero" clip-path="url(#b2ba0027ee)"><rect x="0" width="810" y="0" height="1012.49997" style="fill:#fba100;fill-opacity:1;stroke:none;"/></g></g></g></svg>