<svg xmlns="http://www.w3.org/2000/svg" xmlns:xlink="http://www.w3.org/1999/xlink" width="794" zoomAndPan="magnify" viewBox="0 0 594.95996 842.24997" height="1123" preserveAspectRatio="xMidYMid meet" version="1.2"><defs><clipPath id="fa27c481a9"><path d="M 89.457031 174.171875 L 506 174.171875 L 506 595 L 89.457031 595 Z M 89.457031 174.171875 "/></clipPath></defs><g id="7e77a4eb33"><g clip-rule="nonzero" clip-path="url(#fa27c481a9)"><path style=" stroke:none;fill-rule:nonzero;fill:#103345;fill-opacity:1;" d="M 505.753906 382.355469 C 505.753906 497.296875 412.578125 590.472656 297.640625 590.472656 C 289.257812 590.484375 280.90625 589.992188 272.582031 588.992188 C 264.261719 587.988281 256.03125 586.488281 247.890625 584.488281 C 239.75 582.488281 231.761719 580.003906 223.921875 577.035156 C 216.082031 574.066406 208.453125 570.632812 201.03125 566.738281 C 200.949219 566.773438 200.867188 566.808594 200.785156 566.84375 L 138.050781 592.910156 C 118.421875 601.070312 98.625 581.644531 106.402344 561.867188 L 129.019531 504.363281 C 125.828125 499.964844 122.8125 495.445312 119.976562 490.808594 C 117.140625 486.171875 114.488281 481.433594 112.027344 476.585938 C 109.5625 471.742188 107.292969 466.808594 105.21875 461.785156 C 103.144531 456.761719 101.269531 451.664062 99.59375 446.492188 C 97.921875 441.320312 96.453125 436.09375 95.191406 430.804688 C 93.925781 425.519531 92.875 420.191406 92.03125 414.820312 C 91.1875 409.453125 90.558594 404.058594 90.140625 398.640625 C 89.722656 393.21875 89.515625 387.792969 89.523438 382.355469 C 89.523438 267.417969 182.703125 174.242188 297.640625 174.242188 C 412.578125 174.242188 505.753906 267.417969 505.753906 382.355469 Z M 505.753906 382.355469 "/></g><path style=" stroke:none;fill-rule:nonzero;fill:#ffffff;fill-opacity:1;" d="M 478.753906 382.355469 C 478.753906 385.320312 478.679688 388.285156 478.535156 391.242188 C 478.390625 394.203125 478.171875 397.160156 477.878906 400.109375 C 477.589844 403.058594 477.226562 406 476.792969 408.933594 C 476.355469 411.863281 475.851562 414.785156 475.273438 417.691406 C 474.695312 420.597656 474.046875 423.488281 473.324219 426.363281 C 472.605469 429.238281 471.8125 432.09375 470.953125 434.929688 C 470.09375 437.769531 469.164062 440.582031 468.164062 443.371094 C 467.167969 446.164062 466.101562 448.925781 464.964844 451.667969 C 463.832031 454.40625 462.632812 457.113281 461.363281 459.792969 C 460.097656 462.472656 458.765625 465.121094 457.367188 467.734375 C 455.96875 470.347656 454.507812 472.925781 452.984375 475.46875 C 451.460938 478.011719 449.875 480.511719 448.230469 482.976562 C 446.582031 485.441406 444.875 487.863281 443.109375 490.246094 C 441.34375 492.625 439.523438 494.960938 437.640625 497.253906 C 435.761719 499.546875 433.824219 501.789062 431.835938 503.984375 C 429.84375 506.179688 427.800781 508.328125 425.707031 510.421875 C 423.609375 512.519531 421.464844 514.5625 419.269531 516.554688 C 417.070312 518.542969 414.828125 520.480469 412.535156 522.359375 C 410.246094 524.238281 407.910156 526.0625 405.527344 527.828125 C 403.148438 529.59375 400.726562 531.300781 398.261719 532.945312 C 395.796875 534.59375 393.292969 536.179688 390.75 537.703125 C 388.207031 539.226562 385.628906 540.6875 383.015625 542.085938 C 380.402344 543.480469 377.753906 544.8125 375.074219 546.082031 C 372.394531 547.347656 369.6875 548.550781 366.949219 549.683594 C 364.210938 550.816406 361.445312 551.882812 358.65625 552.882812 C 355.863281 553.882812 353.050781 554.8125 350.214844 555.671875 C 347.378906 556.53125 344.523438 557.320312 341.648438 558.042969 C 338.773438 558.761719 335.878906 559.410156 332.972656 559.988281 C 330.066406 560.566406 327.148438 561.074219 324.214844 561.507812 C 321.28125 561.945312 318.34375 562.308594 315.390625 562.597656 C 312.441406 562.886719 309.488281 563.105469 306.527344 563.25 C 303.566406 563.398438 300.605469 563.46875 297.640625 563.46875 C 294.675781 563.46875 291.714844 563.398438 288.753906 563.25 C 285.792969 563.105469 282.839844 562.886719 279.886719 562.597656 C 276.9375 562.308594 273.996094 561.945312 271.066406 561.507812 C 268.132812 561.074219 265.214844 560.566406 262.308594 559.988281 C 259.398438 559.410156 256.507812 558.761719 253.632812 558.042969 C 250.757812 557.320312 247.902344 556.53125 245.066406 555.671875 C 242.230469 554.8125 239.417969 553.882812 236.625 552.882812 C 233.835938 551.882812 231.070312 550.816406 228.332031 549.683594 C 225.59375 548.550781 222.882812 547.347656 220.203125 546.082031 C 217.523438 544.8125 214.878906 543.480469 212.265625 542.085938 C 209.652344 540.6875 207.070312 539.226562 204.53125 537.703125 C 201.988281 536.179688 199.484375 534.59375 197.019531 532.945312 C 194.554688 531.300781 192.132812 529.59375 189.75 527.828125 C 187.371094 526.0625 185.035156 524.238281 182.742188 522.359375 C 180.453125 520.480469 178.207031 518.542969 176.011719 516.554688 C 173.816406 514.5625 171.671875 512.519531 169.574219 510.421875 C 167.480469 508.328125 165.433594 506.179688 163.445312 503.984375 C 161.453125 501.789062 159.519531 499.546875 157.636719 497.253906 C 155.757812 494.960938 153.933594 492.625 152.167969 490.246094 C 150.402344 487.863281 148.699219 485.441406 147.050781 482.976562 C 145.402344 480.511719 143.820312 478.011719 142.296875 475.46875 C 140.769531 472.925781 139.3125 470.347656 137.914062 467.734375 C 136.515625 465.121094 135.183594 462.472656 133.917969 459.792969 C 132.648438 457.113281 131.449219 454.40625 130.3125 451.667969 C 129.179688 448.925781 128.113281 446.164062 127.113281 443.371094 C 126.117188 440.582031 125.1875 437.769531 124.328125 434.929688 C 123.464844 432.09375 122.675781 429.238281 121.957031 426.363281 C 121.234375 423.488281 120.585938 420.597656 120.007812 417.691406 C 119.429688 414.785156 118.921875 411.863281 118.488281 408.933594 C 118.054688 406 117.691406 403.058594 117.398438 400.109375 C 117.109375 397.160156 116.890625 394.203125 116.746094 391.246094 C 116.601562 388.285156 116.527344 385.320312 116.527344 382.355469 C 116.527344 379.394531 116.601562 376.429688 116.746094 373.46875 C 116.890625 370.511719 117.109375 367.554688 117.398438 364.605469 C 117.691406 361.65625 118.054688 358.714844 118.488281 355.78125 C 118.921875 352.851562 119.429688 349.929688 120.007812 347.023438 C 120.585938 344.117188 121.234375 341.226562 121.957031 338.351562 C 122.675781 335.476562 123.464844 332.621094 124.328125 329.785156 C 125.1875 326.945312 126.117188 324.132812 127.113281 321.34375 C 128.113281 318.550781 129.179688 315.789062 130.3125 313.046875 C 131.449219 310.308594 132.648438 307.601562 133.917969 304.921875 C 135.183594 302.242188 136.515625 299.59375 137.914062 296.980469 C 139.3125 294.367188 140.769531 291.789062 142.296875 289.246094 C 143.820312 286.703125 145.402344 284.203125 147.050781 281.738281 C 148.699219 279.273438 150.402344 276.851562 152.167969 274.46875 C 153.933594 272.089844 155.757812 269.753906 157.636719 267.460938 C 159.519531 265.167969 161.453125 262.925781 163.445312 260.730469 C 165.433594 258.535156 167.480469 256.386719 169.574219 254.292969 C 171.671875 252.195312 173.816406 250.152344 176.011719 248.160156 C 178.207031 246.171875 180.453125 244.234375 182.742188 242.355469 C 185.035156 240.476562 187.371094 238.652344 189.75 236.886719 C 192.132812 235.121094 194.554688 233.414062 197.019531 231.769531 C 199.484375 230.121094 201.988281 228.535156 204.53125 227.011719 C 207.070312 225.488281 209.652344 224.027344 212.265625 222.628906 C 214.878906 221.234375 217.523438 219.902344 220.203125 218.632812 C 222.882812 217.367188 225.59375 216.164062 228.332031 215.03125 C 231.070312 213.898438 233.835938 212.832031 236.625 211.832031 C 239.417969 210.832031 242.230469 209.902344 245.066406 209.042969 C 247.902344 208.183594 250.757812 207.394531 253.632812 206.671875 C 256.507812 205.953125 259.398438 205.304688 262.308594 204.726562 C 265.214844 204.148438 268.132812 203.640625 271.066406 203.207031 C 273.996094 202.769531 276.9375 202.40625 279.886719 202.117188 C 282.839844 201.828125 285.792969 201.609375 288.753906 201.464844 C 291.714844 201.316406 294.675781 201.246094 297.640625 201.246094 C 300.605469 201.246094 303.566406 201.316406 306.527344 201.464844 C 309.488281 201.609375 312.441406 201.828125 315.390625 202.117188 C 318.34375 202.40625 321.28125 202.769531 324.214844 203.207031 C 327.148438 203.640625 330.066406 204.148438 332.972656 204.726562 C 335.878906 205.304688 338.773438 205.953125 341.648438 206.671875 C 344.523438 207.394531 347.378906 208.183594 350.214844 209.042969 C 353.050781 209.902344 355.863281 210.832031 358.65625 211.832031 C 361.445312 212.832031 364.210938 213.898438 366.949219 215.03125 C 369.6875 216.164062 372.394531 217.367188 375.074219 218.632812 C 377.753906 219.902344 380.402344 221.234375 383.015625 222.628906 C 385.628906 224.027344 388.207031 225.488281 390.75 227.011719 C 393.292969 228.535156 395.796875 230.121094 398.261719 231.769531 C 400.726562 233.414062 403.148438 235.121094 405.527344 236.886719 C 407.910156 238.652344 410.246094 240.476562 412.535156 242.355469 C 414.828125 244.234375 417.070312 246.171875 419.269531 248.160156 C 421.464844 250.152344 423.609375 252.195312 425.707031 254.292969 C 427.800781 256.386719 429.84375 258.535156 431.835938 260.730469 C 433.824219 262.925781 435.761719 265.167969 437.640625 267.460938 C 439.523438 269.753906 441.34375 272.089844 443.109375 274.46875 C 444.875 276.851562 446.582031 279.273438 448.230469 281.738281 C 449.875 284.203125 451.460938 286.703125 452.984375 289.246094 C 454.507812 291.789062 455.96875 294.367188 457.367188 296.980469 C 458.765625 299.59375 460.097656 302.242188 461.363281 304.921875 C 462.632812 307.601562 463.832031 310.308594 464.964844 313.046875 C 466.101562 315.789062 467.167969 318.550781 468.164062 321.34375 C 469.164062 324.132812 470.09375 326.945312 470.953125 329.785156 C 471.8125 332.621094 472.605469 335.476562 473.324219 338.351562 C 474.046875 341.226562 474.695312 344.117188 475.273438 347.023438 C 475.851562 349.929688 476.355469 352.851562 476.792969 355.78125 C 477.226562 358.714844 477.589844 361.65625 477.878906 364.605469 C 478.171875 367.554688 478.390625 370.511719 478.535156 373.46875 C 478.679688 376.429688 478.753906 379.394531 478.753906 382.355469 Z M 478.753906 382.355469 "/><path style=" stroke:none;fill-rule:nonzero;fill:#103345;fill-opacity:1;" d="M 453.386719 382.355469 C 453.386719 384.90625 453.324219 387.453125 453.199219 390 C 453.074219 392.546875 452.886719 395.085938 452.636719 397.625 C 452.386719 400.160156 452.074219 402.6875 451.699219 405.210938 C 451.328125 407.730469 450.890625 410.242188 450.394531 412.742188 C 449.894531 415.242188 449.335938 417.726562 448.71875 420.199219 C 448.097656 422.671875 447.417969 425.128906 446.679688 427.566406 C 445.941406 430.007812 445.140625 432.425781 444.28125 434.828125 C 443.421875 437.226562 442.507812 439.605469 441.53125 441.957031 C 440.554688 444.3125 439.523438 446.644531 438.433594 448.945312 C 437.34375 451.25 436.195312 453.527344 434.996094 455.773438 C 433.792969 458.023438 432.539062 460.242188 431.226562 462.425781 C 429.917969 464.613281 428.554688 466.765625 427.136719 468.886719 C 425.722656 471.003906 424.253906 473.085938 422.734375 475.136719 C 421.21875 477.183594 419.648438 479.191406 418.035156 481.160156 C 416.417969 483.132812 414.75 485.0625 413.039062 486.949219 C 411.328125 488.839844 409.570312 490.683594 407.769531 492.484375 C 405.964844 494.289062 404.121094 496.046875 402.234375 497.757812 C 400.34375 499.46875 398.414062 501.132812 396.445312 502.75 C 394.472656 504.367188 392.464844 505.933594 390.417969 507.453125 C 388.371094 508.972656 386.289062 510.4375 384.167969 511.855469 C 382.046875 513.269531 379.894531 514.632812 377.710938 515.945312 C 375.523438 517.253906 373.304688 518.511719 371.058594 519.710938 C 368.808594 520.914062 366.535156 522.058594 364.230469 523.148438 C 361.925781 524.238281 359.597656 525.273438 357.242188 526.246094 C 354.886719 527.222656 352.507812 528.140625 350.109375 529 C 347.710938 529.859375 345.289062 530.65625 342.851562 531.398438 C 340.410156 532.136719 337.957031 532.816406 335.484375 533.4375 C 333.011719 534.054688 330.523438 534.613281 328.023438 535.109375 C 325.523438 535.609375 323.015625 536.042969 320.492188 536.417969 C 317.972656 536.792969 315.441406 537.101562 312.90625 537.351562 C 310.371094 537.601562 307.828125 537.789062 305.28125 537.914062 C 302.738281 538.039062 300.1875 538.101562 297.640625 538.101562 C 295.089844 538.101562 292.542969 538.039062 290 537.914062 C 287.453125 537.789062 284.910156 537.601562 282.375 537.351562 C 279.839844 537.101562 277.308594 536.792969 274.789062 536.417969 C 272.265625 536.042969 269.753906 535.609375 267.253906 535.109375 C 264.753906 534.613281 262.269531 534.054688 259.796875 533.433594 C 257.324219 532.816406 254.867188 532.136719 252.429688 531.398438 C 249.992188 530.65625 247.570312 529.859375 245.171875 529 C 242.769531 528.140625 240.394531 527.222656 238.039062 526.246094 C 235.683594 525.273438 233.355469 524.238281 231.050781 523.148438 C 228.746094 522.058594 226.46875 520.914062 224.222656 519.710938 C 221.972656 518.511719 219.757812 517.253906 217.570312 515.945312 C 215.382812 514.632812 213.230469 513.269531 211.113281 511.855469 C 208.992188 510.4375 206.910156 508.972656 204.863281 507.453125 C 202.816406 505.933594 200.804688 504.367188 198.835938 502.75 C 196.867188 501.132812 194.9375 499.46875 193.046875 497.757812 C 191.160156 496.046875 189.3125 494.289062 187.511719 492.484375 C 185.710938 490.683594 183.953125 488.839844 182.242188 486.949219 C 180.527344 485.0625 178.863281 483.132812 177.246094 481.160156 C 175.628906 479.191406 174.0625 477.183594 172.542969 475.136719 C 171.027344 473.085938 169.558594 471.003906 168.140625 468.886719 C 166.726562 466.765625 165.363281 464.613281 164.050781 462.425781 C 162.742188 460.242188 161.488281 458.023438 160.285156 455.777344 C 159.082031 453.527344 157.9375 451.25 156.847656 448.945312 C 155.757812 446.644531 154.726562 444.3125 153.75 441.957031 C 152.773438 439.605469 151.859375 437.226562 151 434.828125 C 150.140625 432.425781 149.339844 430.007812 148.601562 427.566406 C 147.859375 425.128906 147.179688 422.671875 146.5625 420.199219 C 145.941406 417.726562 145.382812 415.242188 144.886719 412.742188 C 144.390625 410.242188 143.953125 407.730469 143.582031 405.210938 C 143.207031 402.6875 142.894531 400.160156 142.644531 397.625 C 142.394531 395.085938 142.207031 392.546875 142.082031 390 C 141.957031 387.453125 141.894531 384.90625 141.894531 382.355469 C 141.894531 379.808594 141.957031 377.261719 142.082031 374.714844 C 142.207031 372.167969 142.394531 369.628906 142.644531 367.089844 C 142.894531 364.554688 143.207031 362.027344 143.582031 359.503906 C 143.953125 356.984375 144.390625 354.472656 144.886719 351.972656 C 145.382812 349.472656 145.941406 346.988281 146.5625 344.515625 C 147.179688 342.042969 147.859375 339.585938 148.601562 337.148438 C 149.339844 334.707031 150.140625 332.289062 151 329.886719 C 151.859375 327.488281 152.773438 325.109375 153.75 322.757812 C 154.726562 320.402344 155.757812 318.070312 156.847656 315.765625 C 157.9375 313.464844 159.082031 311.1875 160.285156 308.9375 C 161.488281 306.691406 162.742188 304.472656 164.050781 302.289062 C 165.363281 300.101562 166.726562 297.949219 168.140625 295.828125 C 169.558594 293.710938 171.027344 291.628906 172.542969 289.578125 C 174.0625 287.53125 175.628906 285.523438 177.246094 283.554688 C 178.863281 281.582031 180.527344 279.652344 182.242188 277.765625 C 183.953125 275.875 185.710938 274.03125 187.511719 272.230469 C 189.3125 270.425781 191.160156 268.667969 193.046875 266.957031 C 194.9375 265.246094 196.867188 263.582031 198.835938 261.964844 C 200.804688 260.347656 202.816406 258.78125 204.863281 257.261719 C 206.910156 255.742188 208.992188 254.277344 211.113281 252.859375 C 213.230469 251.445312 215.382812 250.082031 217.570312 248.769531 C 219.757812 247.460938 221.972656 246.203125 224.222656 245.003906 C 226.46875 243.800781 228.746094 242.65625 231.050781 241.566406 C 233.355469 240.476562 235.683594 239.441406 238.039062 238.46875 C 240.394531 237.492188 242.769531 236.574219 245.171875 235.714844 C 247.570312 234.855469 249.992188 234.058594 252.429688 233.316406 C 254.867188 232.578125 257.324219 231.898438 259.796875 231.277344 C 262.269531 230.660156 264.753906 230.101562 267.253906 229.605469 C 269.753906 229.105469 272.265625 228.671875 274.789062 228.296875 C 277.308594 227.921875 279.839844 227.613281 282.375 227.363281 C 284.910156 227.113281 287.453125 226.925781 290 226.800781 C 292.542969 226.675781 295.089844 226.613281 297.640625 226.613281 C 300.1875 226.613281 302.738281 226.675781 305.28125 226.800781 C 307.828125 226.925781 310.371094 227.113281 312.90625 227.363281 C 315.441406 227.613281 317.972656 227.921875 320.492188 228.296875 C 323.015625 228.671875 325.523438 229.105469 328.023438 229.605469 C 330.523438 230.101562 333.011719 230.660156 335.484375 231.277344 C 337.957031 231.898438 340.410156 232.578125 342.851562 233.316406 C 345.289062 234.058594 347.710938 234.855469 350.109375 235.714844 C 352.507812 236.574219 354.886719 237.492188 357.242188 238.46875 C 359.597656 239.441406 361.925781 240.476562 364.230469 241.566406 C 366.535156 242.65625 368.808594 243.800781 371.058594 245.003906 C 373.304688 246.203125 375.523438 247.460938 377.710938 248.769531 C 379.894531 250.082031 382.046875 251.445312 384.167969 252.859375 C 386.289062 254.277344 388.371094 255.742188 390.417969 257.261719 C 392.464844 258.78125 394.472656 260.347656 396.445312 261.964844 C 398.414062 263.582031 400.34375 265.246094 402.234375 266.957031 C 404.121094 268.667969 405.964844 270.425781 407.769531 272.230469 C 409.570312 274.03125 411.328125 275.875 413.039062 277.765625 C 414.75 279.652344 416.417969 281.582031 418.035156 283.554688 C 419.648438 285.523438 421.21875 287.53125 422.734375 289.578125 C 424.253906 291.628906 425.722656 293.710938 427.136719 295.828125 C 428.554688 297.949219 429.917969 300.101562 431.226562 302.289062 C 432.539062 304.472656 433.792969 306.691406 434.996094 308.9375 C 436.195312 311.1875 437.34375 313.464844 438.433594 315.765625 C 439.523438 318.070312 440.554688 320.402344 441.53125 322.757812 C 442.507812 325.109375 443.421875 327.488281 444.28125 329.886719 C 445.140625 332.289062 445.941406 334.707031 446.679688 337.148438 C 447.417969 339.585938 448.097656 342.042969 448.71875 344.515625 C 449.335938 346.988281 449.894531 349.472656 450.394531 351.972656 C 450.890625 354.472656 451.328125 356.984375 451.699219 359.503906 C 452.074219 362.027344 452.386719 364.554688 452.636719 367.089844 C 452.886719 369.628906 453.074219 372.167969 453.199219 374.714844 C 453.324219 377.261719 453.386719 379.808594 453.386719 382.355469 Z M 453.386719 382.355469 "/><path style=" stroke:none;fill-rule:nonzero;fill:#ffffff;fill-opacity:1;" d="M 277.640625 331.480469 L 271.582031 305.890625 C 271.40625 305.160156 271.199219 304.445312 270.949219 303.738281 C 270.703125 303.03125 270.417969 302.339844 270.097656 301.664062 C 269.773438 300.988281 269.417969 300.328125 269.027344 299.691406 C 268.640625 299.050781 268.214844 298.433594 267.761719 297.839844 C 267.304688 297.246094 266.820312 296.675781 266.304688 296.132812 C 265.789062 295.589844 265.246094 295.074219 264.679688 294.589844 C 264.109375 294.101562 263.515625 293.648438 262.898438 293.222656 C 262.28125 292.800781 261.644531 292.410156 260.984375 292.054688 C 260.328125 291.699219 259.652344 291.375 258.960938 291.089844 C 258.265625 290.804688 257.5625 290.558594 256.84375 290.347656 C 256.125 290.136719 255.398438 289.960938 254.660156 289.828125 C 253.925781 289.695312 253.183594 289.597656 252.4375 289.542969 C 251.691406 289.484375 250.941406 289.46875 250.195312 289.492188 C 249.445312 289.511719 248.699219 289.574219 247.957031 289.675781 C 247.214844 289.777344 246.480469 289.917969 245.753906 290.09375 C 245.027344 290.273438 244.3125 290.488281 243.605469 290.742188 L 229.628906 295.773438 C 228.5 296.183594 227.410156 296.683594 226.363281 297.273438 C 225.320312 297.863281 224.328125 298.539062 223.398438 299.296875 C 222.464844 300.058594 221.605469 300.886719 220.8125 301.792969 C 220.019531 302.695312 219.3125 303.660156 218.683594 304.683594 C 218.054688 305.707031 217.515625 306.777344 217.066406 307.894531 C 216.617188 309.007812 216.269531 310.152344 216.011719 311.328125 C 215.757812 312.5 215.605469 313.6875 215.550781 314.890625 C 215.496094 316.089844 215.542969 317.285156 215.691406 318.480469 C 220.5625 358.058594 242.984375 453.804688 346.105469 474.84375 C 347.125 475.050781 348.152344 475.183594 349.1875 475.242188 C 350.226562 475.296875 351.261719 475.28125 352.296875 475.1875 C 353.332031 475.09375 354.355469 474.925781 355.363281 474.683594 C 356.375 474.4375 357.359375 474.125 358.324219 473.738281 C 359.289062 473.351562 360.21875 472.894531 361.117188 472.371094 C 362.015625 471.847656 362.871094 471.265625 363.683594 470.617188 C 364.492188 469.96875 365.253906 469.265625 365.964844 468.507812 C 366.671875 467.746094 367.324219 466.941406 367.914062 466.085938 L 375.9375 454.496094 C 376.335938 453.921875 376.703125 453.328125 377.042969 452.71875 C 377.382812 452.109375 377.691406 451.484375 377.96875 450.84375 C 378.246094 450.203125 378.492188 449.546875 378.707031 448.882812 C 378.921875 448.21875 379.101562 447.546875 379.25 446.863281 C 379.394531 446.179688 379.507812 445.492188 379.589844 444.796875 C 379.667969 444.105469 379.714844 443.40625 379.726562 442.710938 C 379.738281 442.011719 379.714844 441.3125 379.65625 440.617188 C 379.601562 439.921875 379.511719 439.230469 379.386719 438.542969 C 379.261719 437.855469 379.101562 437.175781 378.910156 436.503906 C 378.71875 435.832031 378.496094 435.171875 378.238281 434.523438 C 377.980469 433.875 377.695312 433.238281 377.375 432.617188 C 377.054688 431.996094 376.707031 431.390625 376.328125 430.804688 C 375.949219 430.21875 375.542969 429.652344 375.109375 429.105469 C 374.675781 428.554688 374.214844 428.03125 373.730469 427.53125 C 373.246094 427.027344 372.734375 426.550781 372.203125 426.097656 C 371.671875 425.648438 371.117188 425.222656 370.542969 424.824219 L 370.40625 424.730469 L 352.777344 412.726562 C 351.828125 412.082031 350.835938 411.515625 349.792969 411.03125 C 348.753906 410.546875 347.683594 410.148438 346.582031 409.835938 C 345.476562 409.523438 344.355469 409.300781 343.214844 409.171875 C 342.074219 409.039062 340.933594 409 339.789062 409.054688 C 338.640625 409.105469 337.507812 409.25 336.382812 409.488281 C 335.261719 409.722656 334.164062 410.046875 333.097656 410.460938 C 332.027344 410.875 330.996094 411.371094 330.003906 411.949219 C 329.015625 412.527344 328.078125 413.183594 327.195312 413.914062 C 326.316406 414.640625 325.386719 415.292969 324.402344 415.871094 C 323.417969 416.449219 322.398438 416.945312 321.332031 417.359375 C 320.269531 417.773438 319.183594 418.097656 318.066406 418.335938 C 316.953125 418.574219 315.824219 418.722656 314.6875 418.78125 C 313.546875 418.835938 312.414062 418.804688 311.277344 418.679688 C 310.144531 418.554688 309.03125 418.339844 307.929688 418.035156 C 306.832031 417.730469 305.765625 417.339844 304.726562 416.863281 C 303.691406 416.386719 302.699219 415.832031 301.753906 415.195312 C 291.027344 407.96875 276.511719 395.988281 267.082031 379.375 C 266.554688 378.449219 266.097656 377.488281 265.714844 376.496094 C 265.328125 375.5 265.019531 374.484375 264.789062 373.445312 C 264.554688 372.402344 264.402344 371.351562 264.324219 370.289062 C 264.25 369.222656 264.253906 368.160156 264.339844 367.097656 C 264.421875 366.035156 264.585938 364.984375 264.824219 363.945312 C 265.066406 362.90625 265.382812 361.890625 265.777344 360.902344 C 266.167969 359.910156 266.632812 358.953125 267.167969 358.03125 C 267.703125 357.109375 268.304688 356.234375 268.972656 355.402344 L 273.507812 349.761719 C 274.527344 348.496094 275.386719 347.132812 276.09375 345.667969 C 276.800781 344.207031 277.332031 342.683594 277.691406 341.097656 C 278.050781 339.515625 278.226562 337.910156 278.214844 336.289062 C 278.207031 334.664062 278.015625 333.0625 277.640625 331.480469 Z M 277.640625 331.480469 "/></g></svg>